<svg width="58" height="88" viewBox="0 0 58 88" fill="none" xmlns="http://www.w3.org/2000/svg">
	<path d="M47.75 0.25H10.25C5.0938 0.25 0.875 4.4688 0.875 9.625V69H57.125V9.625C57.125 4.4688 52.9062 0.25 47.75 0.25ZM32.125 15.875H25.875C24.1562 15.875 22.75 14.4688 22.75 12.75C22.75 11.0312 24.1562 9.625 25.875 9.625H32.125C33.8438 9.625 35.25 11.0312 35.25 12.75C35.25 14.4688 33.8438 15.875 32.125 15.875ZM0.875 75.25H57.125V78.375C57.125 83.5312 52.9062 87.75 47.75 87.75H10.25C5.0938 87.75 0.875 83.5312 0.875 78.375V75.25Z" fill="black" />
</svg>
